<svg width="40" height="40" viewBox="0 0 40 40" fill="none" xmlns="http://www.w3.org/2000/svg">
    <rect width="40" height="40" rx="8" fill="#1A365D"/>
    <path d="M20 8C13.373 8 8 13.373 8 20C8 26.627 13.373 32 20 32C26.627 32 32 26.627 32 20C32 13.373 26.627 8 20 8ZM20 30C14.486 30 10 25.514 10 20C10 14.486 14.486 10 20 10C25.514 10 30 14.486 30 20C30 25.514 25.514 30 20 30Z" fill="white"/>
    <path d="M20 12C16.686 12 14 14.686 14 18V22C14 25.314 16.686 28 20 28C23.314 28 26 25.314 26 22V18C26 14.686 23.314 12 20 12ZM24 22C24 24.206 22.206 26 20 26C17.794 26 16 24.206 16 22V18C16 15.794 17.794 14 20 14C22.206 14 24 15.794 24 18V22Z" fill="white"/>
    <path d="M20 16C18.897 16 18 16.897 18 18V22C18 23.103 18.897 24 20 24C21.103 24 22 23.103 22 22V18C22 16.897 21.103 16 20 16Z" fill="white"/>
</svg> 